<svg id="visual" viewBox="0 0 900 600" width="900" height="600" xmlns="http://www.w3.org/2000/svg" xmlns:xlink="http://www.w3.org/1999/xlink" version="1.1"><rect x="0" y="0" width="900" height="600" fill="#001220"></rect><g fill="#A7233A"><circle r="35" cx="23" cy="265"></circle><circle r="7" cx="703" cy="460"></circle><circle r="18" cx="330" cy="85"></circle><circle r="22" cx="76" cy="329"></circle><circle r="32" cx="813" cy="237"></circle><circle r="8" cx="864" cy="514"></circle><circle r="10" cx="265" cy="356"></circle><circle r="19" cx="667" cy="212"></circle><circle r="30" cx="861" cy="96"></circle><circle r="22" cx="791" cy="488"></circle><circle r="29" cx="728" cy="268"></circle><circle r="28" cx="509" cy="266"></circle><circle r="9" cx="626" cy="96"></circle><circle r="29" cx="681" cy="3"></circle><circle r="27" cx="305" cy="548"></circle><circle r="13" cx="137" cy="78"></circle><circle r="7" cx="224" cy="504"></circle><circle r="6" cx="468" cy="471"></circle><circle r="19" cx="864" cy="596"></circle><circle r="6" cx="351" cy="372"></circle><circle r="13" cx="369" cy="232"></circle><circle r="14" cx="405" cy="46"></circle><circle r="17" cx="442" cy="338"></circle><circle r="23" cx="392" cy="139"></circle><circle r="10" cx="571" cy="548"></circle><circle r="11" cx="81" cy="132"></circle><circle r="25" cx="259" cy="41"></circle><circle r="22" cx="59" cy="57"></circle><circle r="8" cx="1" cy="390"></circle><circle r="23" cx="297" cy="235"></circle><circle r="18" cx="645" cy="389"></circle><circle r="7" cx="724" cy="106"></circle><circle r="28" cx="570" cy="29"></circle><circle r="8" cx="383" cy="487"></circle><circle r="24" cx="863" cy="444"></circle><circle r="27" cx="511" cy="380"></circle><circle r="31" cx="705" cy="340"></circle><circle r="29" cx="192" cy="291"></circle><circle r="20" cx="10" cy="591"></circle><circle r="19" cx="683" cy="596"></circle><circle r="19" cx="863" cy="300"></circle><circle r="15" cx="603" cy="454"></circle><circle r="8" cx="37" cy="466"></circle><circle r="15" cx="168" cy="592"></circle><circle r="23" cx="141" cy="461"></circle><circle r="27" cx="897" cy="20"></circle><circle r="32" cx="7" cy="116"></circle><circle r="6" cx="224" cy="179"></circle><circle r="32" cx="398" cy="592"></circle><circle r="15" cx="309" cy="470"></circle><circle r="21" cx="464" cy="140"></circle><circle r="23" cx="290" cy="146"></circle><circle r="28" cx="568" cy="186"></circle><circle r="23" cx="88" cy="242"></circle><circle r="28" cx="524" cy="92"></circle><circle r="6" cx="130" cy="383"></circle><circle r="33" cx="601" cy="317"></circle><circle r="12" cx="763" cy="15"></circle><circle r="24" cx="801" cy="565"></circle><circle r="24" cx="157" cy="3"></circle><circle r="21" cx="818" cy="161"></circle><circle r="16" cx="488" cy="579"></circle><circle r="9" cx="783" cy="406"></circle><circle r="28" cx="800" cy="334"></circle><circle r="18" cx="206" cy="108"></circle><circle r="19" cx="83" cy="547"></circle><circle r="11" cx="369" cy="304"></circle><circle r="9" cx="163" cy="213"></circle><circle r="21" cx="5" cy="10"></circle><circle r="21" cx="889" cy="161"></circle><circle r="16" cx="220" cy="429"></circle><circle r="14" cx="727" cy="540"></circle><circle r="12" cx="889" cy="231"></circle><circle r="26" cx="862" cy="371"></circle><circle r="23" cx="440" cy="207"></circle><circle r="22" cx="473" cy="8"></circle><circle r="15" cx="746" cy="187"></circle><circle r="6" cx="34" cy="185"></circle><circle r="11" cx="331" cy="4"></circle><circle r="24" cx="420" cy="413"></circle><circle r="23" cx="640" cy="528"></circle><circle r="30" cx="238" cy="581"></circle></g></svg>