<svg id="visual" viewBox="0 0 960 540" width="960" height="540" xmlns="http://www.w3.org/2000/svg" xmlns:xlink="http://www.w3.org/1999/xlink" version="1.1"><rect x="0" y="0" width="960" height="540" fill="#183e5c"></rect><path d="M0 380L22.8 375.5C45.7 371 91.3 362 137 356.8C182.7 351.7 228.3 350.3 274 348C319.7 345.7 365.3 342.3 411.2 349.8C457 357.3 503 375.7 548.8 373C594.7 370.3 640.3 346.7 686 343.7C731.7 340.7 777.3 358.3 823 363.5C868.7 368.7 914.3 361.3 937.2 357.7L960 354L960 541L937.2 541C914.3 541 868.7 541 823 541C777.3 541 731.7 541 686 541C640.3 541 594.7 541 548.8 541C503 541 457 541 411.2 541C365.3 541 319.7 541 274 541C228.3 541 182.7 541 137 541C91.3 541 45.7 541 22.8 541L0 541Z" fill="#69b4fa"></path><path d="M0 416L22.8 407.5C45.7 399 91.3 382 137 381.5C182.7 381 228.3 397 274 399.7C319.7 402.3 365.3 391.7 411.2 392.2C457 392.7 503 404.3 548.8 404C594.7 403.7 640.3 391.3 686 386.3C731.7 381.3 777.3 383.7 823 382.3C868.7 381 914.3 376 937.2 373.5L960 371L960 541L937.2 541C914.3 541 868.7 541 823 541C777.3 541 731.7 541 686 541C640.3 541 594.7 541 548.8 541C503 541 457 541 411.2 541C365.3 541 319.7 541 274 541C228.3 541 182.7 541 137 541C91.3 541 45.7 541 22.8 541L0 541Z" fill="#4297f6"></path><path d="M0 437L22.8 431.5C45.7 426 91.3 415 137 415.7C182.7 416.3 228.3 428.7 274 429C319.7 429.3 365.3 417.7 411.2 419C457 420.3 503 434.7 548.8 434.3C594.7 434 640.3 419 686 413C731.7 407 777.3 410 823 415.2C868.7 420.3 914.3 427.7 937.2 431.3L960 435L960 541L937.2 541C914.3 541 868.7 541 823 541C777.3 541 731.7 541 686 541C640.3 541 594.7 541 548.8 541C503 541 457 541 411.2 541C365.3 541 319.7 541 274 541C228.3 541 182.7 541 137 541C91.3 541 45.7 541 22.8 541L0 541Z" fill="#3077ee"></path><path d="M0 478L22.8 470.7C45.7 463.3 91.3 448.7 137 446C182.7 443.3 228.3 452.7 274 454.3C319.7 456 365.3 450 411.2 446.2C457 442.3 503 440.7 548.8 444.2C594.7 447.7 640.3 456.3 686 457.8C731.7 459.3 777.3 453.7 823 448.5C868.7 443.3 914.3 438.7 937.2 436.3L960 434L960 541L937.2 541C914.3 541 868.7 541 823 541C777.3 541 731.7 541 686 541C640.3 541 594.7 541 548.8 541C503 541 457 541 411.2 541C365.3 541 319.7 541 274 541C228.3 541 182.7 541 137 541C91.3 541 45.7 541 22.8 541L0 541Z" fill="#3d54df"></path><path d="M0 477L22.8 477.5C45.7 478 91.3 479 137 479.2C182.7 479.3 228.3 478.7 274 479.2C319.7 479.7 365.3 481.3 411.2 481C457 480.7 503 478.3 548.8 478.7C594.7 479 640.3 482 686 484.5C731.7 487 777.3 489 823 492.8C868.7 496.7 914.3 502.3 937.2 505.2L960 508L960 541L937.2 541C914.3 541 868.7 541 823 541C777.3 541 731.7 541 686 541C640.3 541 594.7 541 548.8 541C503 541 457 541 411.2 541C365.3 541 319.7 541 274 541C228.3 541 182.7 541 137 541C91.3 541 45.7 541 22.8 541L0 541Z" fill="#5524c7"></path></svg>